<svg xmlns="http://www.w3.org/2000/svg" xmlns:xlink="http://www.w3.org/1999/xlink" width="1080" zoomAndPan="magnify" viewBox="0 0 810 809.999993" height="1080" preserveAspectRatio="xMidYMid meet" version="1.0"><defs><g/><clipPath id="1e02fd4f95"><path d="M 526 174.40625 L 748 174.40625 L 748 523.90625 L 526 523.90625 Z M 526 174.40625 " clip-rule="nonzero"/></clipPath><clipPath id="d1fef83a17"><path d="M 565 343 L 772.71875 343 L 772.71875 514 L 565 514 Z M 565 343 " clip-rule="nonzero"/></clipPath><clipPath id="eeb9f2ad8b"><rect x="0" width="275" y="0" height="410"/></clipPath><clipPath id="cee7497670"><rect x="0" width="274" y="0" height="410"/></clipPath></defs><g clip-path="url(#1e02fd4f95)"><path fill="#4d273f" d="M 641.453125 517.019531 C 649.140625 519.699219 656.96875 521.601562 664.726562 522.800781 C 647.871094 524.070312 630.523438 521.953125 613.527344 516.101562 C 546.605469 492.96875 510.21875 419.628906 533.347656 352.636719 C 536.875 342.410156 540.539062 334.230469 546.886719 324.003906 C 593.007812 240.015625 551.894531 174.503906 551.894531 174.503906 C 551.894531 174.503906 605.136719 212.863281 586.871094 286.347656 C 618.675781 266.320312 658.945312 260.324219 697.234375 273.582031 C 717.050781 280.421875 734.117188 291.636719 747.730469 305.808594 C 738.984375 300.167969 729.394531 295.515625 719.097656 291.917969 C 653.160156 269.140625 582.359375 301.085938 560.851562 363.285156 C 539.484375 425.414062 575.519531 494.238281 641.453125 517.019531 Z M 641.453125 517.019531 " fill-opacity="1" fill-rule="nonzero"/></g><path fill="#4d273f" d="M 656.640625 214.699219 C 656.980469 215.394531 657.28125 216.101562 657.550781 216.824219 C 657.816406 217.550781 658.050781 218.285156 658.246094 219.03125 C 658.441406 219.777344 658.597656 220.53125 658.722656 221.292969 C 658.84375 222.054688 658.925781 222.820312 658.972656 223.589844 C 659.019531 224.359375 659.027344 225.128906 659 225.902344 C 658.96875 226.671875 658.902344 227.441406 658.796875 228.203125 C 658.691406 228.96875 658.550781 229.726562 658.371094 230.476562 C 658.191406 231.226562 657.976562 231.964844 657.726562 232.695312 C 657.472656 233.425781 657.1875 234.140625 656.863281 234.839844 C 656.542969 235.542969 656.1875 236.226562 655.796875 236.890625 C 655.410156 237.558594 654.988281 238.203125 654.535156 238.828125 C 654.082031 239.453125 653.601562 240.050781 653.089844 240.628906 C 652.578125 241.207031 652.039062 241.757812 651.472656 242.28125 C 650.90625 242.808594 650.316406 243.300781 649.703125 243.769531 C 649.089844 244.234375 648.453125 244.671875 647.796875 245.074219 C 647.136719 245.476562 646.460938 245.847656 645.769531 246.1875 C 645.074219 246.523438 644.367188 246.828125 643.644531 247.09375 C 642.921875 247.363281 642.183594 247.59375 641.4375 247.789062 C 640.691406 247.984375 639.9375 248.144531 639.175781 248.265625 C 638.414062 248.386719 637.648438 248.472656 636.878906 248.519531 C 636.109375 248.566406 635.339844 248.574219 634.566406 248.542969 C 633.796875 248.515625 633.03125 248.449219 632.265625 248.34375 C 631.5 248.238281 630.742188 248.097656 629.992188 247.917969 C 629.242188 247.738281 628.503906 247.523438 627.773438 247.269531 C 627.046875 247.019531 626.328125 246.730469 625.628906 246.410156 C 624.929688 246.089844 624.246094 245.734375 623.578125 245.34375 C 622.914062 244.953125 622.265625 244.535156 621.640625 244.082031 C 621.019531 243.628906 620.417969 243.144531 619.839844 242.632812 C 619.261719 242.121094 618.710938 241.585938 618.1875 241.019531 C 617.664062 240.453125 617.167969 239.863281 616.699219 239.246094 C 616.234375 238.632812 615.800781 237.996094 615.394531 237.339844 C 614.992188 236.683594 614.621094 236.007812 614.28125 235.3125 C 613.945312 234.621094 613.644531 233.910156 613.375 233.1875 C 613.105469 232.464844 612.875 231.730469 612.679688 230.984375 C 612.484375 230.238281 612.324219 229.484375 612.203125 228.722656 C 612.082031 227.960938 611.996094 227.195312 611.949219 226.425781 C 611.90625 225.65625 611.894531 224.882812 611.925781 224.113281 C 611.953125 223.34375 612.023438 222.574219 612.125 221.8125 C 612.230469 221.046875 612.371094 220.289062 612.550781 219.539062 C 612.730469 218.789062 612.945312 218.046875 613.199219 217.320312 C 613.449219 216.589844 613.738281 215.875 614.058594 215.175781 C 614.382812 214.472656 614.738281 213.789062 615.125 213.125 C 615.515625 212.457031 615.9375 211.8125 616.386719 211.1875 C 616.839844 210.5625 617.324219 209.960938 617.835938 209.386719 C 618.347656 208.808594 618.886719 208.257812 619.449219 207.730469 C 620.015625 207.207031 620.605469 206.710938 621.222656 206.246094 C 621.835938 205.78125 622.472656 205.34375 623.128906 204.941406 C 623.785156 204.535156 624.460938 204.164062 625.15625 203.828125 C 625.847656 203.492188 626.558594 203.1875 627.28125 202.921875 C 628.003906 202.652344 628.738281 202.421875 629.484375 202.222656 C 630.230469 202.027344 630.984375 201.871094 631.746094 201.75 C 632.507812 201.625 633.273438 201.542969 634.042969 201.496094 C 634.816406 201.449219 635.585938 201.441406 636.355469 201.46875 C 637.125 201.5 637.894531 201.566406 638.660156 201.671875 C 639.421875 201.777344 640.179688 201.917969 640.929688 202.097656 C 641.679688 202.277344 642.421875 202.492188 643.148438 202.742188 C 643.878906 202.996094 644.59375 203.28125 645.296875 203.605469 C 645.996094 203.925781 646.679688 204.28125 647.34375 204.671875 C 648.011719 205.058594 648.65625 205.480469 649.28125 205.933594 C 649.90625 206.386719 650.507812 206.867188 651.085938 207.378906 C 651.660156 207.890625 652.210938 208.429688 652.738281 208.996094 C 653.261719 209.5625 653.757812 210.152344 654.222656 210.765625 C 654.691406 211.382812 655.125 212.015625 655.527344 212.675781 C 655.933594 213.332031 656.304688 214.007812 656.640625 214.699219 Z M 656.640625 214.699219 " fill-opacity="1" fill-rule="nonzero"/><g clip-path="url(#d1fef83a17)"><path fill="#e6b59e" d="M 757.882812 450.730469 C 726.785156 491.558594 705.769531 485.707031 686.304688 481.125 C 686.304688 481.125 712.75 478.867188 722.410156 461.730469 C 726.148438 455.101562 718.460938 449.601562 710.421875 457.710938 C 702.382812 465.820312 681.226562 460.179688 668.746094 458.980469 C 656.265625 457.78125 644.980469 455.523438 635.882812 475.835938 C 587.71875 450.023438 564.164062 396.289062 581.582031 345.796875 C 581.867188 345.019531 582.148438 344.171875 582.429688 343.398438 C 577.703125 350.519531 573.824219 358.277344 570.933594 366.667969 C 551.402344 423.226562 584.546875 486.199219 644.910156 507.074219 C 666.558594 514.550781 687.714844 514.832031 708.378906 509.261719 C 737.996094 501.222656 760.492188 476.398438 772.976562 446.640625 C 767.542969 444.523438 761.339844 446.144531 757.882812 450.730469 Z M 757.882812 450.730469 " fill-opacity="1" fill-rule="nonzero"/></g><g transform="matrix(1, 0, 0, 1, 36, 198)"><g clip-path="url(#eeb9f2ad8b)"><g fill="#4d273f" fill-opacity="1"><g transform="translate(1.024982, 317.898936)"><g><path d="M 34.078125 0 L 34.078125 -266.46875 L 62.359375 -266.46875 L 62.359375 -150.671875 L 208.765625 -150.671875 L 208.765625 -266.46875 L 237.03125 -266.46875 L 237.03125 0 L 208.765625 0 L 208.765625 -124.71875 L 62.359375 -124.71875 L 62.359375 0 Z M 34.078125 0 "/></g></g></g></g></g><g transform="matrix(1, 0, 0, 1, 271, 198)"><g clip-path="url(#cee7497670)"><g fill="#e6b59e" fill-opacity="1"><g transform="translate(0.384472, 317.898936)"><g><path d="M 34.078125 0 L 34.078125 -266.46875 L 62.359375 -266.46875 L 62.359375 -150.671875 L 208.765625 -150.671875 L 208.765625 -266.46875 L 237.03125 -266.46875 L 237.03125 0 L 208.765625 0 L 208.765625 -124.71875 L 62.359375 -124.71875 L 62.359375 0 Z M 34.078125 0 "/></g></g></g></g></g></svg>